<svg width="254" height="83" viewBox="0 0 254 83" fill="none" xmlns="http://www.w3.org/2000/svg">
<path d="M113.89 31.87C113.89 32.71 114.085 33.295 114.475 33.625C114.895 33.955 115.585 34.12 116.545 34.12C116.545 34.66 116.455 35.185 116.275 35.695C116.095 36.205 115.855 36.64 115.555 37H104.62C104.32 36.64 104.08 36.205 103.9 35.695C103.72 35.185 103.63 34.66 103.63 34.12C104.62 34.12 105.31 33.955 105.7 33.625C106.12 33.295 106.33 32.71 106.33 31.87V22.915H96.43V31.87C96.43 32.71 96.625 33.295 97.015 33.625C97.435 33.955 98.14 34.12 99.13 34.12C99.13 34.66 99.04 35.185 98.86 35.695C98.68 36.205 98.44 36.64 98.14 37H87.16C86.86 36.64 86.62 36.205 86.44 35.695C86.26 35.185 86.17 34.66 86.17 34.12C87.16 34.12 87.85 33.955 88.24 33.625C88.66 33.295 88.87 32.71 88.87 31.87V10.72C88.87 9.88 88.66 9.295 88.24 8.965C87.85 8.605 87.16 8.425 86.17 8.425C86.17 7.915 86.26 7.405 86.44 6.895C86.62 6.385 86.86 5.95 87.16 5.59H98.14C98.44 5.95 98.68 6.385 98.86 6.895C99.04 7.405 99.13 7.915 99.13 8.425C98.14 8.425 97.435 8.605 97.015 8.965C96.625 9.295 96.43 9.88 96.43 10.72V19.135H106.33V10.72C106.33 9.88 106.12 9.295 105.7 8.965C105.28 8.605 104.59 8.425 103.63 8.425C103.63 7.915 103.72 7.405 103.9 6.895C104.08 6.385 104.32 5.95 104.62 5.59H115.555C115.855 5.95 116.095 6.385 116.275 6.895C116.455 7.405 116.545 7.915 116.545 8.425C115.585 8.425 114.895 8.605 114.475 8.965C114.085 9.295 113.89 9.88 113.89 10.72V31.87ZM129.755 37.585C126.455 37.585 123.815 36.55 121.835 34.48C119.855 32.38 118.865 29.395 118.865 25.525C118.865 22.765 119.33 20.41 120.26 18.46C121.22 16.51 122.555 15.04 124.265 14.05C125.975 13.06 127.955 12.565 130.205 12.565C132.365 12.565 134.255 13.045 135.875 14.005C137.525 14.935 138.8 16.315 139.7 18.145C140.63 19.975 141.095 22.195 141.095 24.805C141.095 27.535 140.615 29.86 139.655 31.78C138.725 33.7 137.405 35.155 135.695 36.145C133.985 37.105 132.005 37.585 129.755 37.585ZM130.115 34.345C131.165 34.345 131.945 33.745 132.455 32.545C132.965 31.345 133.22 29.125 133.22 25.885C133.22 23.155 133.085 21.055 132.815 19.585C132.545 18.115 132.17 17.11 131.69 16.57C131.21 16.03 130.595 15.76 129.845 15.76C128.795 15.76 128 16.36 127.46 17.56C126.95 18.76 126.695 21.01 126.695 24.31C126.695 27.01 126.83 29.095 127.1 30.565C127.37 32.005 127.745 32.995 128.225 33.535C128.735 34.075 129.365 34.345 130.115 34.345ZM158.821 12.565C160.171 12.565 161.161 12.91 161.791 13.6C162.421 14.29 162.736 15.235 162.736 16.435C162.736 17.725 162.391 18.775 161.701 19.585C161.041 20.395 160.141 20.8 159.001 20.8C158.011 20.8 157.201 20.515 156.571 19.945C155.971 19.375 155.671 18.7 155.671 17.92C155.671 17.44 155.716 17.065 155.806 16.795C154.726 17.065 153.811 17.53 153.061 18.19V31.69C153.061 32.44 153.166 33.01 153.376 33.4C153.586 33.79 153.991 34.09 154.591 34.3C155.221 34.48 156.151 34.57 157.381 34.57C157.381 35.11 157.321 35.575 157.201 35.965C157.081 36.325 156.856 36.67 156.526 37H144.511C143.821 36.31 143.476 35.5 143.476 34.57C144.346 34.57 144.961 34.39 145.321 34.03C145.711 33.64 145.906 32.995 145.906 32.095V19.09C145.906 18.28 145.681 17.71 145.231 17.38C144.811 17.05 144.046 16.885 142.936 16.885V14.86C143.926 14.29 145.231 13.795 146.851 13.375C148.501 12.925 149.776 12.7 150.676 12.7C151.396 12.7 151.906 12.955 152.206 13.465C152.506 13.975 152.656 14.995 152.656 16.525C153.196 15.505 154.051 14.59 155.221 13.78C156.391 12.97 157.591 12.565 158.821 12.565ZM174.04 5.185C174.04 6.475 173.635 7.51 172.825 8.29C172.045 9.04 170.995 9.415 169.675 9.415C168.385 9.415 167.35 9.04 166.57 8.29C165.82 7.51 165.445 6.475 165.445 5.185C165.445 3.925 165.835 2.905 166.615 2.125C167.425 1.345 168.475 0.954997 169.765 0.954997C171.055 0.954997 172.09 1.345 172.87 2.125C173.65 2.905 174.04 3.925 174.04 5.185ZM173.185 32.14C173.185 33.01 173.395 33.64 173.815 34.03C174.265 34.39 174.94 34.57 175.84 34.57C175.84 35.5 175.495 36.31 174.805 37H164.635C163.945 36.31 163.6 35.5 163.6 34.57C164.5 34.57 165.145 34.39 165.535 34.03C165.955 33.64 166.165 32.995 166.165 32.095V19.045C166.165 18.205 165.955 17.605 165.535 17.245C165.145 16.885 164.365 16.705 163.195 16.705V14.725C163.915 14.275 165.13 13.81 166.84 13.33C168.58 12.82 170.05 12.565 171.25 12.565C171.94 12.565 172.435 12.73 172.735 13.06C173.035 13.36 173.185 13.885 173.185 14.635V32.14ZM188.508 33.94C189.978 33.94 191.133 33.715 191.973 33.265C192.813 32.815 193.443 32.2 193.863 31.42C194.313 30.61 194.703 29.53 195.033 28.18H198.408V29.755C198.408 31.285 198.333 32.65 198.183 33.85C198.033 35.02 197.718 36.07 197.238 37H178.158L176.898 35.29L188.058 18.55L190.218 16.165H186.438C185.028 16.165 184.008 16.555 183.378 17.335C182.748 18.115 182.433 19.405 182.433 21.205H178.833C178.503 20.275 178.293 19.27 178.203 18.19C178.143 17.08 178.098 15.4 178.068 13.15H197.193L198.543 14.995L188.238 31.105L185.538 33.94H188.508ZM211.406 37.585C208.106 37.585 205.466 36.55 203.486 34.48C201.506 32.38 200.516 29.395 200.516 25.525C200.516 22.765 200.981 20.41 201.911 18.46C202.871 16.51 204.206 15.04 205.916 14.05C207.626 13.06 209.606 12.565 211.856 12.565C214.016 12.565 215.906 13.045 217.526 14.005C219.176 14.935 220.451 16.315 221.351 18.145C222.281 19.975 222.746 22.195 222.746 24.805C222.746 27.535 222.266 29.86 221.306 31.78C220.376 33.7 219.056 35.155 217.346 36.145C215.636 37.105 213.656 37.585 211.406 37.585ZM211.766 34.345C212.816 34.345 213.596 33.745 214.106 32.545C214.616 31.345 214.871 29.125 214.871 25.885C214.871 23.155 214.736 21.055 214.466 19.585C214.196 18.115 213.821 17.11 213.341 16.57C212.861 16.03 212.246 15.76 211.496 15.76C210.446 15.76 209.651 16.36 209.111 17.56C208.601 18.76 208.346 21.01 208.346 24.31C208.346 27.01 208.481 29.095 208.751 30.565C209.021 32.005 209.396 32.995 209.876 33.535C210.386 34.075 211.016 34.345 211.766 34.345ZM250.551 35.785C250.101 36.235 249.291 36.595 248.121 36.865C246.981 37.135 245.886 37.27 244.836 37.27C243.546 37.27 242.586 37.03 241.956 36.55C241.356 36.07 241.056 35.305 241.056 34.255V20.215C241.056 19.045 240.801 18.205 240.291 17.695C239.781 17.185 239.106 16.93 238.266 16.93C237.036 16.93 236.001 17.425 235.161 18.415V32.14C235.161 33.01 235.341 33.64 235.701 34.03C236.091 34.42 236.736 34.615 237.636 34.615C237.636 35.515 237.291 36.31 236.601 37H226.386C225.666 36.28 225.306 35.485 225.306 34.615C226.206 34.615 226.851 34.42 227.241 34.03C227.631 33.64 227.826 33.01 227.826 32.14V19C227.826 18.19 227.601 17.62 227.151 17.29C226.701 16.93 225.921 16.75 224.811 16.75V14.725C225.771 14.185 227.121 13.69 228.861 13.24C230.631 12.79 231.966 12.565 232.866 12.565C233.556 12.565 234.081 12.79 234.441 13.24C234.831 13.66 235.056 14.47 235.116 15.67C235.896 14.71 236.871 13.96 238.041 13.42C239.211 12.85 240.531 12.565 242.001 12.565C244.161 12.565 245.751 13.12 246.771 14.23C247.821 15.31 248.346 17.095 248.346 19.585V31.87C248.346 33.34 249.066 34.21 250.506 34.48L250.551 35.785ZM111.325 67.07C111.655 68.21 112.075 69.065 112.585 69.635C113.125 70.175 113.815 70.505 114.655 70.625V72.875C113.965 73.835 112.66 74.315 110.74 74.315C108.94 74.315 107.515 74.015 106.465 73.415C105.445 72.815 104.68 72.035 104.17 71.075C103.69 70.085 103.24 68.795 102.82 67.205C102.37 65.435 101.89 63.965 101.38 62.795C100.87 61.625 100.21 60.905 99.4 60.635H96.43V68.87C96.43 69.65 96.715 70.235 97.285 70.625C97.855 70.985 98.605 71.165 99.535 71.165C99.535 72.245 99.205 73.19 98.545 74H87.25C86.56 73.16 86.215 72.215 86.215 71.165C87.235 71.165 87.97 70.985 88.42 70.625C88.9 70.265 89.14 69.68 89.14 68.87V47.72C89.14 46.91 88.9 46.325 88.42 45.965C87.94 45.605 87.19 45.425 86.17 45.425C86.17 44.225 86.47 43.28 87.07 42.59C89.05 42.59 91.27 42.53 93.73 42.41C95.89 42.29 97.585 42.23 98.815 42.23C107.395 42.23 111.685 45.125 111.685 50.915C111.685 55.325 109.345 58.01 104.665 58.97C106.015 59.36 107.305 60.305 108.535 61.805C109.765 63.275 110.695 65.03 111.325 67.07ZM98.41 57.53C100.21 57.53 101.62 56.975 102.64 55.865C103.66 54.725 104.17 53.225 104.17 51.365C104.17 49.445 103.72 48.02 102.82 47.09C101.95 46.13 100.555 45.65 98.635 45.65C97.615 45.65 96.88 45.71 96.43 45.83V57.44C96.97 57.5 97.63 57.53 98.41 57.53ZM128.799 69.41C130.689 69.41 132.444 68.81 134.064 67.61C134.304 67.85 134.514 68.21 134.694 68.69C134.874 69.17 134.964 69.59 134.964 69.95C134.964 70.49 134.604 71.12 133.884 71.84C133.164 72.53 132.159 73.13 130.869 73.64C129.609 74.15 128.184 74.405 126.594 74.405C124.374 74.405 122.424 73.925 120.744 72.965C119.094 72.005 117.819 70.61 116.919 68.78C116.019 66.95 115.569 64.79 115.569 62.3C115.569 59.75 116.049 57.515 117.009 55.595C117.999 53.675 119.349 52.205 121.059 51.185C122.769 50.135 124.704 49.61 126.864 49.61C129.594 49.61 131.769 50.405 133.389 51.995C135.009 53.585 135.819 55.79 135.819 58.61C135.819 59.93 135.609 60.98 135.189 61.76C134.769 62.51 134.019 62.885 132.939 62.885H123.219C123.399 67.235 125.259 69.41 128.799 69.41ZM126.594 52.715C125.664 52.715 124.884 53.24 124.254 54.29C123.624 55.31 123.279 57.035 123.219 59.465H127.764C128.244 59.465 128.559 59.3 128.709 58.97C128.859 58.64 128.934 58.13 128.934 57.44C128.934 55.67 128.724 54.44 128.304 53.75C127.884 53.06 127.314 52.715 126.594 52.715ZM149.092 74.495C148.822 74.495 148.237 74.465 147.337 74.405V77.69C147.337 78.5 147.622 79.115 148.192 79.535C148.792 79.955 149.467 80.165 150.217 80.165C150.217 81.065 149.872 81.86 149.182 82.55H139.237C138.517 81.83 138.157 81.035 138.157 80.165C139.027 80.165 139.597 79.985 139.867 79.625C140.137 79.265 140.272 78.62 140.272 77.69V56.135C140.272 55.325 140.047 54.755 139.597 54.425C139.147 54.065 138.367 53.885 137.257 53.885V51.86C138.217 51.29 139.432 50.795 140.902 50.375C142.402 49.925 143.557 49.7 144.367 49.7C144.997 49.7 145.507 49.835 145.897 50.105C146.287 50.345 146.572 50.81 146.752 51.5C147.982 50.3 149.797 49.7 152.197 49.7C153.847 49.7 155.362 50.12 156.742 50.96C158.122 51.8 159.217 53.075 160.027 54.785C160.867 56.465 161.287 58.52 161.287 60.95C161.287 63.74 160.747 66.155 159.667 68.195C158.587 70.235 157.117 71.795 155.257 72.875C153.397 73.955 151.342 74.495 149.092 74.495ZM153.502 62.03C153.502 59.12 153.052 57.005 152.152 55.685C151.252 54.365 150.067 53.705 148.597 53.705C148.117 53.705 147.697 53.795 147.337 53.975V70.76C147.847 71.06 148.417 71.21 149.047 71.21C150.367 71.21 151.432 70.445 152.242 68.915C153.082 67.385 153.502 65.09 153.502 62.03ZM174.623 74.585C171.323 74.585 168.683 73.55 166.703 71.48C164.723 69.38 163.733 66.395 163.733 62.525C163.733 59.765 164.198 57.41 165.128 55.46C166.088 53.51 167.423 52.04 169.133 51.05C170.843 50.06 172.823 49.565 175.073 49.565C177.233 49.565 179.123 50.045 180.743 51.005C182.393 51.935 183.668 53.315 184.568 55.145C185.498 56.975 185.963 59.195 185.963 61.805C185.963 64.535 185.483 66.86 184.523 68.78C183.593 70.7 182.273 72.155 180.563 73.145C178.853 74.105 176.873 74.585 174.623 74.585ZM174.983 71.345C176.033 71.345 176.813 70.745 177.323 69.545C177.833 68.345 178.088 66.125 178.088 62.885C178.088 60.155 177.953 58.055 177.683 56.585C177.413 55.115 177.038 54.11 176.558 53.57C176.078 53.03 175.463 52.76 174.713 52.76C173.663 52.76 172.868 53.36 172.328 54.56C171.818 55.76 171.563 58.01 171.563 61.31C171.563 64.01 171.698 66.095 171.968 67.565C172.238 69.005 172.613 69.995 173.093 70.535C173.603 71.075 174.233 71.345 174.983 71.345ZM203.689 49.565C205.039 49.565 206.029 49.91 206.659 50.6C207.289 51.29 207.604 52.235 207.604 53.435C207.604 54.725 207.259 55.775 206.569 56.585C205.909 57.395 205.009 57.8 203.869 57.8C202.879 57.8 202.069 57.515 201.439 56.945C200.839 56.375 200.539 55.7 200.539 54.92C200.539 54.44 200.584 54.065 200.674 53.795C199.594 54.065 198.679 54.53 197.929 55.19V68.69C197.929 69.44 198.034 70.01 198.244 70.4C198.454 70.79 198.859 71.09 199.459 71.3C200.089 71.48 201.019 71.57 202.249 71.57C202.249 72.11 202.189 72.575 202.069 72.965C201.949 73.325 201.724 73.67 201.394 74H189.379C188.689 73.31 188.344 72.5 188.344 71.57C189.214 71.57 189.829 71.39 190.189 71.03C190.579 70.64 190.774 69.995 190.774 69.095V56.09C190.774 55.28 190.549 54.71 190.099 54.38C189.679 54.05 188.914 53.885 187.804 53.885V51.86C188.794 51.29 190.099 50.795 191.719 50.375C193.369 49.925 194.644 49.7 195.544 49.7C196.264 49.7 196.774 49.955 197.074 50.465C197.374 50.975 197.524 51.995 197.524 53.525C198.064 52.505 198.919 51.59 200.089 50.78C201.259 49.97 202.459 49.565 203.689 49.565ZM217.783 54.155V66.845C217.783 67.745 217.963 68.375 218.323 68.735C218.683 69.065 219.193 69.23 219.853 69.23C220.423 69.23 221.023 69.08 221.653 68.78C222.283 68.48 222.778 68.105 223.138 67.655C223.438 67.895 223.648 68.255 223.768 68.735C223.918 69.215 223.993 69.65 223.993 70.04C223.993 70.73 223.753 71.405 223.273 72.065C222.793 72.725 222.073 73.265 221.113 73.685C220.153 74.105 218.998 74.315 217.648 74.315C215.548 74.315 213.853 73.715 212.563 72.515C211.303 71.315 210.673 69.32 210.673 66.53V54.155H207.838V51.41C208.618 51.29 209.368 50.795 210.088 49.925C210.838 49.025 211.468 47.915 211.978 46.595C212.518 45.245 212.863 43.91 213.013 42.59C213.553 42.5 214.048 42.455 214.498 42.455C215.578 42.455 216.373 42.77 216.883 43.4C217.423 44 217.693 44.675 217.693 45.425V50.15H222.913C222.913 51.05 222.868 51.83 222.778 52.49C222.688 53.12 222.493 53.675 222.193 54.155H217.783ZM234.746 74.45C233.276 74.45 231.806 74.24 230.336 73.82C228.896 73.37 227.711 72.74 226.781 71.93C225.851 71.12 225.386 70.16 225.386 69.05C225.386 68 225.686 67.16 226.286 66.53C226.886 65.87 227.651 65.54 228.581 65.54C229.421 65.54 230.126 65.81 230.696 66.35C231.296 66.89 231.596 67.595 231.596 68.465C231.596 68.855 231.536 69.2 231.416 69.5C231.326 69.77 231.146 70.07 230.876 70.4C231.116 70.64 231.566 70.835 232.226 70.985C232.886 71.105 233.591 71.165 234.341 71.165C235.361 71.165 236.156 70.985 236.726 70.625C237.326 70.235 237.626 69.74 237.626 69.14C237.626 68.33 237.251 67.64 236.501 67.07C235.751 66.47 234.551 65.735 232.901 64.865C231.221 63.965 229.946 63.23 229.076 62.66C228.206 62.06 227.426 61.265 226.736 60.275C226.076 59.255 225.746 58.01 225.746 56.54C225.746 54.5 226.586 52.85 228.266 51.59C229.946 50.33 232.271 49.7 235.241 49.7C238.151 49.7 240.311 50.225 241.721 51.275C243.161 52.295 243.881 53.525 243.881 54.965C243.881 55.865 243.581 56.6 242.981 57.17C242.411 57.74 241.706 58.025 240.866 58.025C240.086 58.025 239.411 57.8 238.841 57.35C238.301 56.87 238.031 56.255 238.031 55.505C238.031 55.115 238.091 54.725 238.211 54.335C238.331 53.915 238.496 53.57 238.706 53.3C238.106 52.82 237.206 52.58 236.006 52.58C235.046 52.58 234.296 52.805 233.756 53.255C233.216 53.705 232.946 54.275 232.946 54.965C232.946 55.895 233.321 56.66 234.071 57.26C234.821 57.86 236.021 58.58 237.671 59.42C239.231 60.23 240.461 60.935 241.361 61.535C242.261 62.135 243.041 62.93 243.701 63.92C244.361 64.91 244.691 66.125 244.691 67.565C244.691 69.905 243.731 71.645 241.811 72.785C239.921 73.895 237.566 74.45 234.746 74.45Z" fill="#18181B"/>
<g clip-path="url(#clip0_19_26)">
<rect width="75.272" height="80" transform="translate(0 3)" fill="black"/>
<ellipse cx="24.9288" cy="58.4355" rx="52.225" ry="31.0715" transform="rotate(20.7157 24.9288 58.4355)" fill="url(#paint0_linear_19_26)"/>
<path d="M1 24C20.6594 22.3479 62.557 27.9012 74.1982 63.06C74.3075 63.38 74.4081 63.6935 74.5 64C74.4018 63.6843 74.3012 63.371 74.1982 63.06C69.5516 49.4549 49.0692 24 1 24Z" fill="white"/>
<g filter="url(#filter0_f_19_26)">
<circle cx="48" cy="34" r="3" fill="white"/>
</g>
<path d="M42.1079 23.3298L48.2481 33.0675L59.1995 27.2965L48.7099 33.8696L57.9443 50.8369L47.9077 34.3314L36.9563 40.1023L47.4459 33.5293L42.1079 23.3298Z" fill="white"/>
</g>
<defs>
<filter id="filter0_f_19_26" x="42" y="28" width="12" height="12" filterUnits="userSpaceOnUse" color-interpolation-filters="sRGB">
<feFlood flood-opacity="0" result="BackgroundImageFix"/>
<feBlend mode="normal" in="SourceGraphic" in2="BackgroundImageFix" result="shape"/>
<feGaussianBlur stdDeviation="1.5" result="effect1_foregroundBlur_19_26"/>
</filter>
<linearGradient id="paint0_linear_19_26" x1="37.9277" y1="28.9987" x2="36.3895" y2="65.2726" gradientUnits="userSpaceOnUse">
<stop stop-color="#656565"/>
<stop offset="1" stop-opacity="0"/>
</linearGradient>
<clipPath id="clip0_19_26">
<rect width="75.272" height="80" fill="white" transform="translate(0 3)"/>
</clipPath>
</defs>
</svg>
